<svg xmlns="http://www.w3.org/2000/svg" viewBox="0 0 40 39" width="40" height="39">
	<style>
		tspan { white-space:pre }
		.shp0 { fill: #fed136 } 
	</style>
	<g id="Services">
		<g id="1 - E-Commerce">
			<path id="Icon-Basket" class="shp0" d="M0.75,12.89c0,-1.9 1.54,-3.44 3.44,-3.44h3.88c0.06,-0.22 0.15,-0.44 0.27,-0.65l4.13,-7.15c0.76,-1.32 2.44,-1.77 3.76,-1.01c1.32,0.76 1.77,2.44 1.01,3.76l-2.91,5.05h11.38l-2.91,-5.05c-0.76,-1.32 -0.31,-3 1.01,-3.76c1.32,-0.76 3,-0.31 3.76,1.01l4.13,7.15c0.12,0.21 0.21,0.42 0.27,0.65h3.88c1.9,0 3.44,1.54 3.44,3.44c0,1.9 -1.54,3.44 -3.44,3.44h-31.66c-1.9,0 -3.44,-1.54 -3.44,-3.44zM35.28,38.36h-30.5l-1.19,-20.65l32.88,0zM18.65,24.59v8.26c0,0.76 0.62,1.38 1.38,1.38c0.76,0 1.38,-0.62 1.38,-1.38v-8.26c0,-0.76 -0.62,-1.38 -1.38,-1.38c-0.76,0 -1.38,0.62 -1.38,1.38zM26.91,24.59v8.26c0,0.76 0.62,1.38 1.38,1.38c0.76,0 1.38,-0.62 1.38,-1.38v-8.26c0,-0.76 -0.62,-1.38 -1.38,-1.38c-0.76,0 -1.38,0.62 -1.38,1.38zM10.39,24.59v8.26c0,0.76 0.62,1.38 1.38,1.38c0.76,0 1.38,-0.62 1.38,-1.38v-8.26c0,-0.76 -0.62,-1.38 -1.38,-1.38c-0.76,0 -1.38,0.62 -1.38,1.38z" />
		</g>
	</g>
</svg>